<?xml version="1.0" standalone="no"?>
<!DOCTYPE svg PUBLIC "-//W3C//DTD SVG 1.1//EN" "http://www.w3.org/Graphics/SVG/1.1/DTD/svg11.dtd" >
<svg xmlns="http://www.w3.org/2000/svg">
<metadata>
Created by FontForge 20120731 at Fri May  8 20:58:28 2015
 By Ads
</metadata>
<defs>
<font id="iconfont" horiz-adv-x="1024" >
  <font-face 
    font-family="iconfont"
    font-weight="500"
    font-stretch="normal"
    units-per-em="1024"
    panose-1="2 0 6 3 0 0 0 0 0 0"
    ascent="812"
    descent="-212"
    x-height="792"
    bbox="0 -212 1024 812"
    underline-thickness="50"
    underline-position="-100"
    unicode-range="U+0078-E612"
  />
<missing-glyph horiz-adv-x="374" 
d="M34 0v682h272v-682h-272zM68 34h204v614h-204v-614z" />
    <glyph glyph-name=".notdef" horiz-adv-x="374" 
d="M34 0v682h272v-682h-272zM68 34h204v614h-204v-614z" />
    <glyph glyph-name=".null" horiz-adv-x="0" 
 />
    <glyph glyph-name="nonmarkingreturn" horiz-adv-x="341" 
 />
    <glyph glyph-name="x" unicode="x" horiz-adv-x="1001" 
d="M281 543q-27 -1 -53 -1h-83q-18 0 -36.5 -6t-32.5 -18.5t-23 -32t-9 -45.5v-76h912v41q0 16 -0.5 30t-0.5 18q0 13 -5 29t-17 29.5t-31.5 22.5t-49.5 9h-133v-97h-438v97zM955 310v-52q0 -23 0.5 -52t0.5 -58t-10.5 -47.5t-26 -30t-33 -16t-31.5 -4.5q-14 -1 -29.5 -0.5
t-29.5 0.5h-32l-45 128h-439l-44 -128h-29h-34q-20 0 -45 1q-25 0 -41 9.5t-25.5 23t-13.5 29.5t-4 30v167h911zM163 247q-12 0 -21 -8.5t-9 -21.5t9 -21.5t21 -8.5q13 0 22 8.5t9 21.5t-9 21.5t-22 8.5zM316 123q-8 -26 -14 -48q-5 -19 -10.5 -37t-7.5 -25t-3 -15t1 -14.5
t9.5 -10.5t21.5 -4h37h67h81h80h64h36q23 0 34 12t2 38q-5 13 -9.5 30.5t-9.5 34.5q-5 19 -11 39h-368zM336 498v228q0 11 2.5 23t10 21.5t20.5 15.5t34 6h188q31 0 51.5 -14.5t20.5 -52.5v-227h-327z" />
    <glyph glyph-name="uniE600" unicode="&#xe600;" 
d="M160 300zM64 300q0 40 28 68t68 28t68 -28t28 -68t-28 -68t-68 -28t-68 28t-28 68zM864 300zM768 300q0 40 28 68t68 28t68 -28t28 -68t-28 -68t-68 -28t-68 28t-28 68zM512 300zM416 300q0 40 28 68t68 28t68 -28t28 -68t-28 -68t-68 -28t-68 28t-28 68z" />
    <glyph glyph-name="uniE601" unicode="&#xe601;" 
d="M973 350h-115q-17 115 -99 197t-197 99v115q0 21 -14.5 36t-35.5 15t-35.5 -15t-14.5 -36v-115q-115 -17 -197 -99t-99 -197h-115q-21 0 -36 -14.5t-15 -35.5t15 -35.5t36 -14.5h115q17 -115 99 -197t197 -99v-115q0 -21 14.5 -36t35.5 -15t35.5 15t14.5 36v115
q115 17 197 99t99 197h115q21 0 36 14.5t15 35.5t-15 35.5t-36 14.5zM512 27q-113 0 -193 80t-80 193t80 193t193 80t193 -80t80 -193t-80 -193t-193 -80zM512 300zM350 300q0 67 47.5 114.5t114.5 47.5t114.5 -47.5t47.5 -114.5t-47.5 -114.5t-114.5 -47.5t-114.5 47.5
t-47.5 114.5z" />
    <glyph glyph-name="uniE602" unicode="&#xe602;" 
d="M874 572l-91 90l-271 -271l-272 271l-90 -90l271 -272l-271 -271l90 -91l272 272l271 -272l91 91l-272 271z" />
    <glyph glyph-name="uniE603" unicode="&#xe603;" 
d="M150 436l362 -362l-90 -91l-363 362zM331 74l543 543l91 -91l-544 -543z" />
    <glyph glyph-name="uniE604" unicode="&#xe604;" 
d="M960 44h-64h-4h-87q-43 77 -143 128h234v64q0 28 -24 53.5t-66 43.5q-26 -44 -70 -70.5t-96 -26.5v128q26 0 45 19t19 45v192q0 26 -19 45t-45 19t-45 -19t-19 -45v-88q-52 59 -128 79v9q0 80 56 136t136 56t136 -56t56 -136v-164q88 -34 140 -92t52 -128v-128
q0 -26 -19 -45t-45 -19zM576 364v-164q88 -33 140 -91.5t52 -128.5v-128q0 -26 -19 -45t-45 -19h-64h-4h-504h-4h-64q-26 0 -45 19t-19 45v128q0 70 52 128t140 92v164q0 80 56 136t136 56t136 -56t56 -136zM218 77q-42 -18 -66 -43.5t-24 -53.5v-64h512v64q0 28 -24 53.5
t-66 43.5q-26 -44 -70 -70.5t-96 -26.5t-96 26.5t-70 70.5zM448 364q0 26 -19 45t-45 19t-45 -19t-19 -45v-192q0 -26 19 -45t45 -19t45 19t19 45v192z" />
    <glyph glyph-name="uniE605" unicode="&#xe605;" 
d="M512 684q159 0 271.5 -112.5t112.5 -271.5t-112.5 -271.5t-271.5 -112.5t-271.5 112.5t-112.5 271.5t112.5 271.5t271.5 112.5zM512 812q-139 0 -257 -68.5t-186.5 -186.5t-68.5 -257t68.5 -257t186.5 -186.5t257 -68.5t257 68.5t186.5 186.5t68.5 257t-68.5 257
t-186.5 186.5t-257 68.5zM384 522l384 -222l-384 -222v444z" />
    <glyph glyph-name="uniE606" unicode="&#xe606;" 
d="M512 774q-96 0 -178 -47.5t-129.5 -129.5t-47.5 -179q0 -54 38 -137.5t85 -154t108 -149t85.5 -107t38.5 -44.5q14 17 38 44.5t85.5 106.5t108 149.5t85 154t38.5 137.5q0 97 -47.5 179t-129.5 129.5t-178 47.5zM512 182q-98 0 -167.5 69t-69.5 167t69.5 167.5
t167.5 69.5t167.5 -69t69.5 -167.5t-69.5 -167.5t-167.5 -69zM512 537q-49 0 -83.5 -35t-34.5 -84t34.5 -83.5t83.5 -34.5t83.5 34.5t34.5 83.5t-34.5 84t-83.5 35z" />
    <glyph glyph-name="uniE607" unicode="&#xe607;" 
d="M918 358q-24 0 -41 -17t-17 -41v-348h-696v348q0 24 -17 41t-41 17t-41 -17t-17 -41v-406q0 -24 17 -41t41 -17h812q24 0 41 17t17 41v406q0 24 -17 41t-41 17zM454 184q0 -24 17 -41t41 -17t41 17t17 41v348h174l-232 232l-232 -232h174v-348z" />
    <glyph glyph-name="uniE608" unicode="&#xe608;" 
d="M970 128v-57q0 -24 -17 -40.5t-41 -16.5h-57h-57v-172l-257 172h-372h-57q-24 0 -41 16.5t-17 40.5v629q0 24 17 41t41 17h114h114h458h114q24 0 41 -17t17 -41v-57v-515zM855 643h-114h-458h-114v-400v-115h114h258l143 -85v85h57h114v515zM340 243h-57v114h458v-114
h-401zM283 529h458v-115h-458v115z" />
    <glyph glyph-name="uniE609" unicode="&#xe609;" 
d="M549 2v-77h151v-75h-184h-2q-1 -1 -2 -1l-4 1h-184v75h150v77q-127 15 -213.5 110.5t-86.5 225.5h75q0 -108 76 -184.5t183 -77.5h2h2h2h1q108 1 183.5 77.5t75.5 184.5h76q0 -130 -86.5 -226t-214.5 -110zM512 150q-78 0 -133 55t-55 133h1l-1 225q0 78 55 133t133 55
q77 0 132 -54.5t56 -131.5v-1v-226q0 -4 -1 -7q-2 -76 -56.5 -128.5t-130.5 -52.5zM625 338v225h-1q0 46 -32.5 79t-79.5 33t-79.5 -33t-32.5 -79h-1l1 -225v-1q0 -46 33 -79t79 -33q47 0 79.5 33t32.5 80h1zM511 375h2h-1v0h-1z" />
    <glyph glyph-name="uniE60A" unicode="&#xe60a;" 
d="M418 -164q26 -2 44 18q15 16 13.5 38.5t-17.5 38.5q-106 95 -148.5 228.5t-13.5 271t125 242.5q15 17 14 39.5t-18 37.5t-39.5 14t-37.5 -18q-87 -95 -128.5 -216t-35.5 -241t59.5 -236.5t149.5 -202.5q14 -13 33 -14zM607 -73q26 -2 43 18q15 17 14 39.5t-18 37.5
q-59 52 -93 122t-37 148q-4 78 22 150t80 130q15 16 14 38.5t-17.5 38t-39 14.5t-38.5 -17q-68 -74 -101.5 -167t-28.5 -193t48 -189t118 -157q15 -12 34 -13zM791 30q26 -1 43 19q15 16 14 39t-18 37q-74 66 -79 164q-5 97 62 169q15 16 14 38.5t-17.5 38t-39 14.5
t-38.5 -17q-97 -106 -90 -249q3 -69 33 -130.5t82 -108.5q15 -13 34 -14z" />
    <glyph glyph-name="uniE60B" unicode="&#xe60b;" 
d="M606 -164q-26 -2 -44 18q-15 16 -13.5 38.5t17.5 38.5q106 95 148.5 228.5t13.5 271t-125 242.5q-15 17 -14 39.5t18 37.5t39.5 14t37.5 -18q87 -95 128.5 -216t35.5 -241t-59.5 -236.5t-149.5 -202.5q-14 -13 -33 -14zM417 -73q-26 -2 -43 18q-15 17 -14 39.5t18 37.5
q59 52 93 122t37 148q4 78 -22 150t-80 130q-15 16 -14 38.5t17.5 38t39 14.5t38.5 -17q68 -74 101.5 -167t28.5 -193t-48 -189t-118 -157q-15 -12 -34 -13zM233 30q-26 -1 -43 19q-15 16 -14 39t18 37q74 66 79 164q5 97 -62 169q-15 16 -14 38.5t17.5 38t39 14.5t38.5 -17
q97 -106 90 -249q-3 -69 -33 -130.5t-82 -108.5q-15 -13 -34 -14z" />
    <glyph glyph-name="uniE60C" unicode="&#xe60c;" horiz-adv-x="1025" 
d="M595 -176q25 0 43 17l335 335q51 51 51 124t-51 124l-335 335q-18 17 -43 17t-43 -17.5t-18 -43t18 -42.5l335 -335q15 -16 15 -38t-15 -38l-335 -335q-18 -17 -18 -42.5t18 -43t43 -17.5z" />
    <glyph glyph-name="uniE60D" unicode="&#xe60d;" 
d="M512 -148q-122 0 -225 60t-163 163t-60 225t60 225t163 163t225 60t225 -60t163 -163t60 -225t-60 -225t-163 -163t-225 -60zM512 636q-139 0 -237.5 -98.5t-98.5 -237.5t98.5 -237.5t237.5 -98.5t237.5 98.5t98.5 237.5t-98.5 237.5t-237.5 98.5zM677 98l-10 -6l-29 -17
l-16 -12q-17 -8 -39 -15v17l-5 38q-2 22 -6 27q-7 12 -20 18q-3 1 -7.5 2t-7 2.5t-4.5 4.5q-3 3 -7 12l-7 13q-13 20 -13 23v52l5 44l14 9l15 18l11 3l36 -7h26l11 -22l25 -19l15 -25l21 -7h22l15 -18l10 -20l4 -13v-24l-3 -13q-22 -37 -56 -65zM585 496l-26 -14l-10 -26
l-15 -14h-51l-24 -10l-1 -18l-9 -15l-3 -16l5 -14l6 -14q14 -16 0 -28q-18 0 -21 6q-2 4 -17.5 14.5t-17.5 12.5t-7 4t-9 4l-4 1l-19 7l-18 1l1 24l-1 21l-7 15l-20 15l-1 16l2 9q78 75 188 75q58 0 114 -26l-1 -6z" />
    <glyph glyph-name="uniE60E" unicode="&#xe60e;" 
d="M942 519l-430 -438l-430 438h860z" />
    <glyph glyph-name="uniE60F" unicode="&#xe60f;" 
d="M82 81l430 438l430 -438h-860z" />
    <glyph glyph-name="uniE610" unicode="&#xe610;" 
d="M937 317l-55 -3h-5l5 -28q24 0 40.5 -17t16.5 -40v-142q0 -24 -16.5 -40.5t-40.5 -16.5v-55q0 -13 -8.5 -22t-20.5 -9h-85q-12 0 -20.5 9.5t-8.5 21.5v55h-454v-55q0 -13 -8.5 -22t-20.5 -9h-85q-12 0 -20.5 9.5t-8.5 21.5v55q-23 0 -40 16.5t-17 40.5v142q0 23 17 40
t40 17l5 28h-5l-56 3q-13 0 -21 6.5t-8 19.5v113q0 13 8 21t20 8h57v-114h14l43 256q156 29 313 29q69 0 147.5 -7.5t121.5 -14.5l44 -7l43 -256h14v114h57q13 0 20.5 -8t7.5 -20v-114q0 -13 -8.5 -19.5t-21.5 -6.5zM228 86q35 0 60 25t25 60.5t-25 60.5t-60 25t-60.5 -25
t-25.5 -60.5t25.5 -60.5t60.5 -25zM768 570q-128 29 -256 29q-57 0 -121 -7t-99 -15l-36 -7l-57 -256h626zM796 257q-35 0 -60 -25t-25 -60.5t25 -60.5t60 -25t60 25t25 60.5t-25 60.5t-60 25z" />
    <glyph glyph-name="uniE611" unicode="&#xe611;" 
d="M920 -166h-131h-554h-131q-24 0 -41 17t-17 41v175q0 80 64.5 147t172.5 105q-4 23 -4 39v175q0 96 68 164.5t164.5 68.5t165 -68.5t68.5 -164.5v-175q0 -16 -4 -39q108 -38 172.5 -105t64.5 -147v-175q0 -24 -17 -41t-41 -17zM628 533q0 48 -34 82.5t-82 34.5t-82 -34.5
t-34 -82.5v-175q0 -48 34 -82t82 -34t82 34t34 82v175zM862 67q0 46 -45.5 85.5t-121.5 62.5q-33 -42 -80.5 -66t-102.5 -24t-102.5 24.5t-80.5 65.5q-76 -23 -121 -62.5t-45 -85.5v-116h58h32h434h58h26h91v116z" />
    <glyph glyph-name="uniE612" unicode="&#xe612;" 
d="M718 753h-412q-34 0 -58 -24.5t-24 -58.5v-740q0 -34 24 -58.5t58 -24.5h412q34 0 58 24.5t24 58.5v740q0 34 -24 58.5t-58 24.5zM450 711h124q8 0 14 -6t6 -14.5t-6 -14.5t-14 -6h-124q-8 0 -14 6t-6 14.5t6 14.5t14 6zM512 -111q-17 0 -29 12t-12 29t12 29t29 12
t29 -12t12 -29t-12 -29t-29 -12zM718 12h-412v617h412v-617z" />
  </font>
</defs>
</svg>
